<svg id="contenido" xmlns="http://www.w3.org/2000/svg" viewBox="0 0 470 110"><defs><style>.cls-1{fill:#dad8d8;}.cls-2{fill:#fff;}</style></defs><title>logo-cei-bco</title><rect class="cls-1" x="207.27" width="2.43" height="110"/><path class="cls-2" d="M.79,54.74C.79,20.58,20.21,4,48.28,4c9.5,0,19.85,2.27,26.23,5.95L71.67,25.68a47.73,47.73,0,0,0-22.54-6c-22.54,0-29.91,16-29.91,33.46,0,19.7,9.22,34,31.19,34a46.5,46.5,0,0,0,22.82-6.09l2.55,15.16c-7.09,4.4-18.85,6.67-27.78,6.67C18.94,102.94.79,85.36.79,54.74Z"/><path class="cls-2" d="M91.51,6h55.71V22.42H109.8V43.11h30.05V59h-30V84.51h38.13V101H91.51Z"/><path class="cls-2" d="M165.36,6H183.5v95H165.36Z"/><path class="cls-1" d="M246.27,14.44a13.1,13.1,0,0,0-6.43-1.86,7,7,0,0,0-7.36,7.06c0,3.47,2.45,7,7.38,7a12.17,12.17,0,0,0,6.6-2.07V27.5a13.78,13.78,0,0,1-6.76,1.63c-6.9,0-10-5.18-10-9.51a9.71,9.71,0,0,1,10.05-9.57,16.54,16.54,0,0,1,6.52,1.53Z"/><path class="cls-1" d="M260.28,12.67H252.4v5.67H260v2.37H252.4v5.78h8.13v2.4h-10.8V10.29h10.55Z"/><path class="cls-1" d="M281.24,28.89H279L266.52,14.57V28.89H264V10.29h2.15l12.54,14.42V10.29h2.53Z"/><path class="cls-1" d="M299.18,12.64h-6.49V28.89H290V12.64h-6.38V10.29h15.54Z"/><path class="cls-1" d="M306.43,10.29a7.87,7.87,0,0,1,3.19.6,4.82,4.82,0,0,1,2.92,4.58,4.64,4.64,0,0,1-3.11,4.58c1.69,1.12,2.73,2.84,4.15,5.13.79,1.28,1.25,1.91,2.53,3.71H313c-.63-.9-3.22-5-3.82-5.76-1.82-2.34-2.72-2.34-4-2.34h-.71v8.1h-2.65V10.29Zm-2,2.27v5.86h1a9.55,9.55,0,0,0,2.59-.27,2.82,2.82,0,0,0,1.77-2.68A2.72,2.72,0,0,0,308.4,13a7.51,7.51,0,0,0-3.17-.43Z"/><path class="cls-1" d="M335.68,19.56c0,5.35-4.09,9.57-10.16,9.57a9.44,9.44,0,0,1-9.82-9.49c0-4.93,3.6-9.59,9.95-9.59C331.84,10.05,335.68,14.57,335.68,19.56Zm-17.22.08a7,7,0,0,0,7.22,7,7.63,7.63,0,0,0,5.42-2.21,7.75,7.75,0,0,0,1.86-4.9,7.25,7.25,0,0,0-14.5.1Z"/><path class="cls-1" d="M352.83,10.29c1.75,0,4.77,0,7.25,1.91a9.22,9.22,0,0,1,3.57,7.39,9.33,9.33,0,0,1-4.47,7.91c-2.26,1.39-4.82,1.39-6.73,1.39h-5.89V10.29Zm-3.62,2.38V26.49h3.43a10.37,10.37,0,0,0,5.15-1.07,7,7,0,0,0,3.11-6,6.46,6.46,0,0,0-3.87-6.1,9.92,9.92,0,0,0-4.47-.68Z"/><path class="cls-1" d="M377.53,12.67h-7.88v5.67h7.61v2.37h-7.61v5.78h8.13v2.4H367V10.29h10.55Z"/><path class="cls-1" d="M241,45.38H233.1v5.67h7.61v2.37H233.1V59.2h8.13v2.4h-10.8V43H241Z"/><path class="cls-1" d="M253.47,47.1a6.13,6.13,0,0,0-4.37-1.94c-1.82,0-2.94,1-2.94,2.15,0,1.59,1.09,2.24,4.63,4.31a7.84,7.84,0,0,1,2.4,2.07,4.87,4.87,0,0,1,1,3.08c0,2.92-2.1,5.07-5.4,5.07a8.31,8.31,0,0,1-5-1.71V56.75a6.5,6.5,0,0,0,5,2.72A2.66,2.66,0,0,0,251.69,57c0-1.55-1.58-2.7-2.45-3.22-2.94-1.77-3.79-2.29-4.61-3.32a4.34,4.34,0,0,1-.92-2.78c0-2.81,2.12-4.94,5.48-4.94a7.83,7.83,0,0,1,4.28,1.31Z"/><path class="cls-1" d="M271.08,45.35h-6.49V61.6h-2.67V45.35h-6.38V43h15.54Z"/><path class="cls-1" d="M289.18,53.56c0,1.8,0,4.39-2.1,6.27a8.6,8.6,0,0,1-5.86,2c-2.62,0-5.51-.9-7-3.24a9.5,9.5,0,0,1-1-5V43h2.67V53.56c0,2.45.22,3.4,1.18,4.36a5.39,5.39,0,0,0,4.17,1.55c3,0,4.3-1.55,4.8-2.45a7.58,7.58,0,0,0,.51-3.46V43h2.65Z"/><path class="cls-1" d="M299.18,43c1.75,0,4.77,0,7.25,1.91A9.17,9.17,0,0,1,310,52.3a9.33,9.33,0,0,1-4.47,7.91c-2.26,1.39-4.82,1.39-6.73,1.39h-5.89V43Zm-3.62,2.37V59.2H299a10.47,10.47,0,0,0,5.15-1.06,7,7,0,0,0,3.11-6,6.45,6.45,0,0,0-3.87-6.11,9.92,9.92,0,0,0-4.47-.68Z"/><path class="cls-1" d="M316,61.6h-2.67V43H316Z"/><path class="cls-1" d="M339.31,52.28c0,5.34-4.09,9.56-10.17,9.56a9.43,9.43,0,0,1-9.81-9.48c0-4.94,3.6-9.6,9.95-9.6C335.47,42.76,339.31,47.29,339.31,52.28Zm-17.23.08a7,7,0,0,0,7.23,7,7.62,7.62,0,0,0,5.42-2.2,7.82,7.82,0,0,0,1.85-4.91,7.25,7.25,0,0,0-14.5.11Z"/><path class="cls-1" d="M351.41,47.1a6.11,6.11,0,0,0-4.36-1.94c-1.82,0-2.94,1-2.94,2.15,0,1.59,1.09,2.24,4.63,4.31a8,8,0,0,1,2.4,2.07,4.93,4.93,0,0,1,1,3.08c0,2.92-2.1,5.07-5.4,5.07a8.31,8.31,0,0,1-5-1.71V56.75a6.48,6.48,0,0,0,5,2.72A2.67,2.67,0,0,0,349.64,57c0-1.55-1.58-2.7-2.45-3.22-2.95-1.77-3.79-2.29-4.61-3.32a4.34,4.34,0,0,1-.93-2.78c0-2.81,2.13-4.94,5.48-4.94a7.78,7.78,0,0,1,4.28,1.31Z"/><path class="cls-1" d="M233.13,94.31h-2.67V75.72h2.67Z"/><path class="cls-1" d="M254.56,94.31h-2.29L239.84,80V94.31h-2.51V75.72h2.15L252,90.14V75.72h2.54Z"/><path class="cls-1" d="M272.49,78.06H266V94.31h-2.68V78.06H257V75.72h15.53Z"/><path class="cls-1" d="M285.55,78.09h-7.88v5.67h7.61v2.37h-7.61v5.78h8.13v2.4H275V75.72h10.55Z"/><path class="cls-1" d="M294,75.72a7.73,7.73,0,0,1,3.19.6,4.81,4.81,0,0,1,2.91,4.58,4.66,4.66,0,0,1-3.1,4.58c1.69,1.12,2.72,2.83,4.14,5.12.79,1.29,1.25,1.91,2.54,3.71h-3.17c-.62-.9-3.21-5-3.81-5.75-1.83-2.34-2.73-2.34-4-2.34h-.71v8.09h-2.64V75.72Zm-2,2.26v5.86h1a9.59,9.59,0,0,0,2.59-.27,2.82,2.82,0,0,0,1.77-2.67,2.72,2.72,0,0,0-1.42-2.48,7.23,7.23,0,0,0-3.16-.44Z"/><path class="cls-1" d="M323,94.31h-2.29L308.26,80V94.31h-2.51V75.72h2.16l12.54,14.42V75.72H323Z"/><path class="cls-1" d="M343.1,94.31h-2.73l-2.48-5.48H330l-2.35,5.48h-2.72l8-18.7h1.88Zm-6.3-7.88-3-6.73L331,86.43Z"/><path class="cls-1" d="M359.89,79.86A13.2,13.2,0,0,0,353.46,78a7,7,0,0,0-7.36,7.06c0,3.46,2.45,7,7.39,7A12.09,12.09,0,0,0,360.08,90v2.92a13.79,13.79,0,0,1-6.76,1.64c-6.89,0-10-5.18-10-9.52a9.71,9.71,0,0,1,10.06-9.56A16.55,16.55,0,0,1,359.89,77Z"/><path class="cls-1" d="M366.05,94.31h-2.67V75.72h2.67Z"/><path class="cls-1" d="M389.33,85c0,5.34-4.09,9.57-10.16,9.57a9.44,9.44,0,0,1-9.82-9.49c0-4.93,3.6-9.59,9.95-9.59C385.49,75.48,389.33,80,389.33,85Zm-17.23.08a7,7,0,0,0,7.23,7,7.63,7.63,0,0,0,5.42-2.21A7.76,7.76,0,0,0,386.61,85a7.26,7.26,0,0,0-14.51.11Z"/><path class="cls-1" d="M409.92,94.31h-2.29L395.19,80V94.31h-2.5V75.72h2.15l12.54,14.42V75.72h2.54Z"/><path class="cls-1" d="M430,94.31h-2.72l-2.48-5.48h-7.91l-2.34,5.48h-2.73l8-18.7h1.88Zm-6.29-7.88-3-6.73L418,86.43Z"/><path class="cls-1" d="M434.75,91.89h8.37v2.42H432.05V75.72h2.7Z"/><path class="cls-1" d="M456,78.09h-7.88v5.67h7.6v2.37h-7.6v5.78h8.12v2.4H445.44V75.72H456Z"/><path class="cls-1" d="M468.47,79.81a6.13,6.13,0,0,0-4.36-1.94c-1.83,0-2.94,1-2.94,2.16,0,1.58,1.09,2.23,4.63,4.3a8,8,0,0,1,2.4,2.08,4.88,4.88,0,0,1,1,3.08c0,2.91-2.1,5.07-5.4,5.07a8.35,8.35,0,0,1-5-1.72V89.46a6.53,6.53,0,0,0,5,2.73,2.68,2.68,0,0,0,2.89-2.46c0-1.55-1.58-2.7-2.45-3.21-2.95-1.78-3.79-2.29-4.61-3.33a4.34,4.34,0,0,1-.93-2.78c0-2.81,2.13-4.93,5.48-4.93a7.77,7.77,0,0,1,4.28,1.3Z"/></svg>