<svg id="contenido" xmlns="http://www.w3.org/2000/svg" viewBox="0 0 33 30"><defs><style>.cls-1{fill:#fff;}</style></defs><title>tw-cei-bco</title><path class="cls-1" d="M1,24.77a18.08,18.08,0,0,0,9.78,2.86c11.85,0,18.54-10,18.13-19a13,13,0,0,0,3.19-3.3,13,13,0,0,1-3.67,1,6.41,6.41,0,0,0,2.81-3.53,13,13,0,0,1-4.05,1.55A6.39,6.39,0,0,0,16.27,10.2,18.1,18.1,0,0,1,3.12,3.53a6.39,6.39,0,0,0,2,8.52,6.31,6.31,0,0,1-2.89-.8,6.39,6.39,0,0,0,5.12,6.34,6.47,6.47,0,0,1-2.88.11,6.4,6.4,0,0,0,6,4.43A12.84,12.84,0,0,1,1,24.77Z"/></svg>